<?xml version="1.0" encoding="UTF-8" standalone="no"?><!DOCTYPE svg PUBLIC "-//W3C//DTD SVG 1.1//EN" "http://www.w3.org/Graphics/SVG/1.1/DTD/svg11.dtd"><svg width="100%" height="100%" viewBox="0 0 2084 2084" version="1.1" xmlns="http://www.w3.org/2000/svg" xmlns:xlink="http://www.w3.org/1999/xlink" xml:space="preserve" xmlns:serif="http://www.serif.com/" style="fill-rule:evenodd;clip-rule:evenodd;"><g><circle cx="1041.67" cy="1041.67" r="833.333" style="fill:#fff;stroke:#444;stroke-width:166.67px;"/><path d="M1004.17,920.833l0,-175c-25,0 -50,8.334 -62.5,20.834c-16.667,16.666 -25,33.333 -25,58.333c0,20.833 8.333,37.5 20.833,54.167c12.5,16.666 37.5,29.166 66.667,41.666Zm83.333,445.834c29.167,-4.167 50,-12.5 66.667,-29.167c16.666,-16.667 25,-37.5 25,-62.5c0,-25 -8.334,-45.833 -20.834,-66.667c-16.666,-16.666 -41.666,-29.166 -70.833,-45.833l0,204.167Zm-83.333,300l0,-129.167c-104.167,-4.167 -183.334,-29.167 -237.5,-79.167c-50,-54.166 -79.167,-129.166 -79.167,-229.166l208.333,0c0,45.833 8.334,79.166 25,100c20.834,20.833 45.834,33.333 83.334,37.5l0,-229.167c-104.167,-33.333 -179.167,-70.833 -225,-120.833c-50,-45.834 -70.834,-104.167 -70.834,-175c0,-79.167 25,-141.667 79.167,-187.5c50,-45.834 125,-75 216.667,-79.167l0,-75l83.333,0l0,75c91.667,4.167 162.5,25 216.667,75c50,45.833 75,112.5 79.166,195.833l-208.333,0c0,-33.333 -8.333,-58.333 -25,-75c-12.5,-16.666 -33.333,-25 -62.5,-25l0,204.167c112.5,41.667 191.667,83.333 241.667,129.167c45.833,50 66.666,112.5 66.666,187.5c0,75 -25,137.5 -83.333,187.5c-54.167,50 -129.167,79.166 -225,83.333l0,129.167l-83.333,0Z" style="fill:#2eec96;"/><path d="M320.833,625l1441.67,833.333" style="fill:none;stroke:#444;stroke-width:250px;"/></g></svg>