<?xml version="1.0" encoding="UTF-8" standalone="no"?><!DOCTYPE svg PUBLIC "-//W3C//DTD SVG 1.1//EN" "http://www.w3.org/Graphics/SVG/1.1/DTD/svg11.dtd"><svg width="100%" height="100%" viewBox="0 0 2084 2084" version="1.1" xmlns="http://www.w3.org/2000/svg" xmlns:xlink="http://www.w3.org/1999/xlink" xml:space="preserve" xmlns:serif="http://www.serif.com/" style="fill-rule:evenodd;clip-rule:evenodd;"><g><circle cx="1041.67" cy="1041.67" r="833.333" style="fill:#fff;stroke:#444;stroke-width:166.67px;"/><path d="M870.833,1095.83l150,0c-4.166,62.5 -29.166,112.5 -70.833,150c-91.667,79.167 -266.667,70.834 -354.167,-16.666c-87.5,-91.667 -87.5,-283.334 0,-379.167c83.334,-87.5 262.5,-91.667 350,-16.667c41.667,33.334 66.667,83.334 70.834,145.834l-150,0c-4.167,-25 -12.5,-41.667 -25,-54.167c-33.334,-33.333 -104.167,-25 -129.167,12.5c-33.333,45.833 -33.333,158.333 0,204.167c29.167,41.666 95.833,45.833 133.333,12.5c12.5,-12.5 20.834,-33.334 25,-58.334Zm533.334,0l150,0c-4.167,62.5 -29.167,112.5 -70.834,150c-87.5,79.167 -266.666,70.834 -350,-16.666c-91.666,-91.667 -91.666,-283.334 0,-379.167c83.334,-87.5 258.334,-91.667 350,-16.667c37.5,33.334 62.5,83.334 66.667,145.834l-150,0c-4.167,-25 -12.5,-41.667 -25,-54.167c-33.333,-33.333 -100,-25 -129.167,12.5c-29.166,45.833 -29.166,158.333 4.167,204.167c25,41.666 95.833,45.833 129.167,12.5c12.5,-12.5 20.833,-33.334 25,-58.334Z" style="fill:#2eec96;"/></g></svg>