<?xml version="1.0" encoding="UTF-8" standalone="no"?><!DOCTYPE svg PUBLIC "-//W3C//DTD SVG 1.1//EN" "http://www.w3.org/Graphics/SVG/1.1/DTD/svg11.dtd"><svg width="100%" height="100%" viewBox="0 0 2084 2084" version="1.1" xmlns="http://www.w3.org/2000/svg" xmlns:xlink="http://www.w3.org/1999/xlink" xml:space="preserve" xmlns:serif="http://www.serif.com/" style="fill-rule:evenodd;clip-rule:evenodd;"><g><circle cx="1041.67" cy="1041.67" r="833.333" style="fill:#fff;stroke:#444;stroke-width:166.67px;"/><path d="M1041.67,495.833c70.833,0 129.166,58.334 129.166,129.167c0,70.833 -58.333,129.167 -129.166,129.167c-70.834,0 -129.167,-58.334 -129.167,-129.167c0,-70.833 58.333,-129.167 129.167,-129.167Zm120.833,712.5l0,416.667l-241.667,0l0,-416.667l-66.666,0c-12.5,0 -20.834,-8.333 -20.834,-20.833l0,-312.5c0,-25 20.834,-37.5 41.667,-41.667c112.5,-29.166 220.833,-29.166 333.333,0c20.834,4.167 41.667,20.834 41.667,41.667l0,312.5c0,12.5 -8.333,20.833 -20.833,20.833l-66.667,0Z" style="fill:#2eec96;"/></g></svg>