<?xml version="1.0" encoding="UTF-8" standalone="no"?><!DOCTYPE svg PUBLIC "-//W3C//DTD SVG 1.1//EN" "http://www.w3.org/Graphics/SVG/1.1/DTD/svg11.dtd"><svg width="100%" height="100%" viewBox="0 0 2084 2084" version="1.1" xmlns="http://www.w3.org/2000/svg" xmlns:xlink="http://www.w3.org/1999/xlink" xml:space="preserve" xmlns:serif="http://www.serif.com/" style="fill-rule:evenodd;clip-rule:evenodd;"><g><circle cx="1041.67" cy="1041.67" r="833.333" style="fill:#fff;stroke:#444;stroke-width:166.67px;"/><path d="M758.333,1125c8.334,70.833 33.334,133.333 70.834,179.167c50,62.5 120.833,91.666 212.5,91.666c91.666,0 162.5,-29.166 216.666,-91.666c50,-62.5 75,-150 75,-262.5c0,-112.5 -25,-200 -75,-262.5c-54.166,-62.5 -125,-91.667 -216.666,-91.667c-91.667,0 -162.5,29.167 -212.5,91.667c-29.167,33.333 -45.834,70.833 -58.334,112.5l45.834,0c8.333,0 16.666,8.333 20.833,16.666c4.167,8.334 4.167,16.667 -4.167,25l-58.333,58.334l-83.333,79.166c-8.334,12.5 -20.834,12.5 -29.167,0l-83.333,-79.166l-58.334,-58.334c-8.333,-8.333 -8.333,-16.666 -4.166,-25c4.166,-8.333 12.5,-16.666 20.833,-16.666l62.5,0c20.833,-83.334 58.333,-158.334 108.333,-216.667c83.334,-87.5 195.834,-133.333 333.334,-133.333c137.5,0 250,45.833 329.166,133.333c83.334,91.667 125,212.5 125,366.667c0,154.166 -41.666,275 -125,366.666c-79.166,87.5 -191.666,133.334 -329.166,133.334c-137.5,0 -250,-45.834 -333.334,-133.334c-66.666,-75 -104.166,-170.833 -116.666,-283.333l166.666,0Z" style="fill:#2eec96;"/></g></svg>